HIERARCHY
ROOT Hips
{
 OFFSET 0.000000 0.000000 0.000000
 CHANNELS 6 Xposition Yposition Zposition Yrotation Xrotation Zrotation
 JOINT Chest
 {
  OFFSET 0.000000 9.585900 0.002600
  CHANNELS 3 Yrotation Xrotation Zrotation
  JOINT Chest2
  {
   OFFSET 0.000000 9.601200 -0.005300
   CHANNELS 3 Yrotation Xrotation Zrotation
   JOINT Chest3
   {
    OFFSET 0.000000 9.561800 0.000000
    CHANNELS 3 Yrotation Xrotation Zrotation
    JOINT Chest4
    {
     OFFSET 0.000000 9.552100 0.000000
     CHANNELS 3 Yrotation Xrotation Zrotation
     JOINT Neck
     {
      OFFSET 0.000000 14.453000 0.000000
      CHANNELS 3 Yrotation Xrotation Zrotation
      JOINT Head
      {
       OFFSET 0.000000 8.936500 -0.011300
       CHANNELS 3 Yrotation Xrotation Zrotation
       End Site
       {
        OFFSET 0.000000 17.073600 -0.006000
       }
      }
     }
     JOINT RightCollar
     {
      OFFSET -2.921100 9.558500 0.000000
      CHANNELS 3 Yrotation Xrotation Zrotation
      JOINT RightShoulder
      {
       OFFSET -13.519700 0.000000 0.000000
       CHANNELS 3 Yrotation Xrotation Zrotation
       JOINT RightElbow
       {
        OFFSET 0.000000 -29.696600 0.000000
        CHANNELS 3 Yrotation Xrotation Zrotation
        JOINT RightWrist
        {
         OFFSET 0.000000 -24.004700 0.000000
         CHANNELS 3 Yrotation Xrotation Zrotation
         End Site
         {
          OFFSET 0.000000 -17.728500 0.000000
         }
        }
       }
      }
     }
     JOINT LeftCollar
     {
      OFFSET 2.921100 9.558500 0.000000
      CHANNELS 3 Yrotation Xrotation Zrotation
      JOINT LeftShoulder
      {
       OFFSET 13.519700 0.000000 0.000000
       CHANNELS 3 Yrotation Xrotation Zrotation
       JOINT LeftElbow
       {
        OFFSET 0.000000 -29.696600 0.000000
        CHANNELS 3 Yrotation Xrotation Zrotation
        JOINT LeftWrist
        {
         OFFSET 0.000000 -24.004700 0.000000
         CHANNELS 3 Yrotation Xrotation Zrotation
         End Site
         {
          OFFSET 0.000000 -17.728500 0.000000
         }
        }
       }
      }
     }
    }
   }
  }
 }
 JOINT RightHip
 {
  OFFSET -7.771700 -0.012900 -0.001300
  CHANNELS 3 Yrotation Xrotation Zrotation
  JOINT RightKnee
  {
   OFFSET 0.000000 -40.869800 0.001200
   CHANNELS 3 Yrotation Xrotation Zrotation
   JOINT RightAnkle
   {
    OFFSET 0.000000 -39.717900 0.002100
    CHANNELS 3 Yrotation Xrotation Zrotation
    JOINT RightToe
    {
     OFFSET 0.000000 -4.965400 11.033500
     CHANNELS 3 Yrotation Xrotation Zrotation
     End Site
     {
      OFFSET 0.000000 -1.423100 5.872300
     }
    }
   }
  }
 }
 JOINT LeftHip
 {
  OFFSET 7.771700 -0.012900 -0.001300
  CHANNELS 3 Yrotation Xrotation Zrotation
  JOINT LeftKnee
  {
   OFFSET 0.000000 -40.869800 0.001200
   CHANNELS 3 Yrotation Xrotation Zrotation
   JOINT LeftAnkle
   {
    OFFSET 0.000000 -39.717900 0.002100
    CHANNELS 3 Yrotation Xrotation Zrotation
    JOINT LeftToe
    {
     OFFSET 0.000000 -4.965400 11.033500
     CHANNELS 3 Yrotation Xrotation Zrotation
     End Site
     {
      OFFSET 0.000000 -1.423100 5.872300
     }
    }
   }
  }
 }
}
MOTION
Frames: 12
Frame Time: 0.008333
-17.293215 58.076671 70.453037 -177.503646 -29.908830 -0.598585 2.644743 18.245252 2.833111 0.273696 2.093415 0.242992 0.401030 3.463217 0.401023 2.136923 15.914941 2.103666 -2.870494 15.364176 1.637069 -5.919607 -7.107055 4.073902 3.866902 -3.769506 -1.104287 16.138894 -20.011433 -16.016875 66.966956 -75.498784 -25.280964 14.519511 -20.363702 -44.921472 -7.583860 -4.647346 -3.766156 -3.464922 -12.807276 1.702481 35.154443 -10.457068 -71.997133 13.822884 -12.161651 31.856585 12.823574 -40.454492 -8.155930 -5.538022 68.460001 -8.229458 4.117732 3.645688 11.642183 -0.076995 0.159447 -0.035410 -4.304646 -46.477768 0.308551 23.306241 68.313980 20.027985 -13.181909 21.107652 2.596920 0.204582 -12.728348 -3.064957
-17.294485 58.070167 70.458733 -177.483336 -29.901394 -0.626325 2.686288 18.233473 2.874338 0.250811 2.094677 0.240027 0.387471 3.462475 0.400203 2.167916 15.913420 2.106475 -2.869285 15.371500 1.630156 -5.951957 -7.107294 4.091984 3.878131 -3.785907 -1.057017 16.075745 -20.021754 -16.023890 67.162544 -75.479377 -25.489082 14.498225 -20.354453 -45.003636 -7.603620 -4.650192 -3.763390 -3.476790 -12.825971 1.721154 35.175165 -10.557362 -72.014322 13.803891 -12.102226 31.876901 12.796029 -40.470242 -8.150198 -5.518244 68.466148 -8.196203 4.124520 3.625584 11.637051 -0.077667 0.181500 -0.037356 -4.398928 -46.530485 0.326697 23.367877 68.324299 20.083455 -13.083070 21.296709 2.634184 0.150830 -12.954064 -3.097115
-17.299147 58.065327 70.461776 -177.467806 -29.918169 -0.628964 2.692612 18.248331 2.879774 0.258533 2.095986 0.241215 0.423446 3.465670 0.402557 2.150284 15.912515 2.106506 -2.865933 15.374474 1.624321 -5.943253 -7.102055 4.079625 3.862491 -3.798863 -1.030354 16.047192 -20.020278 -16.029200 67.422485 -75.491280 -25.827337 14.440765 -20.334563 -45.021149 -7.619949 -4.655701 -3.758527 -3.489624 -12.945750 1.784478 35.187090 -10.534744 -72.012541 13.784322 -12.048448 31.900056 12.782974 -40.459727 -8.173799 -5.493950 68.478128 -8.146667 4.122726 3.619974 11.612216 -0.063755 0.187260 -0.033098 -4.429696 -46.545572 0.312144 23.370253 68.331864 20.086817 -13.065838 21.438146 2.632131 0.154351 -13.102568 -3.105838
-17.301386 58.059687 70.466503 -177.459530 -29.927890 -0.637462 2.694070 18.256727 2.888526 0.265232 2.096925 0.242330 0.438802 3.469318 0.403827 2.170963 15.910024 2.109851 -2.816800 15.381351 1.605555 -5.981907 -7.103810 4.093823 3.841089 -3.809230 -1.006540 16.031740 -20.042331 -15.999477 67.428194 -75.450514 -25.873160 14.431548 -20.327713 -45.084956 -7.646915 -4.659963 -3.759698 -3.528528 -13.005450 1.821420 35.233014 -10.570331 -72.010842 13.813519 -11.992597 31.922410 12.738497 -40.461683 -8.164141 -5.424537 68.485616 -8.090042 4.138801 3.618771 11.611166 -0.074611 0.187466 -0.039228 -4.462915 -46.566317 0.313931 23.428588 68.346812 20.140278 -13.051996 21.516732 2.639879 0.144791 -13.203281 -3.113975
-17.303713 58.053489 70.472708 -177.441056 -29.932528 -0.644555 2.700864 18.262032 2.898007 0.255209 2.096763 0.240327 0.446391 3.472451 0.403293 2.232775 15.922592 2.116490 -2.868128 15.364629 1.616007 -5.943844 -7.107328 4.068684 3.774364 -3.832812 -0.984359 16.052828 -20.053067 -15.965034 67.398593 -75.411098 -25.912490 14.419985 -20.323530 -45.138992 -7.711523 -4.689412 -3.754659 -3.563185 -13.022887 1.849139 35.282232 -10.627120 -72.013142 13.835156 -11.941421 31.941396 12.713784 -40.462680 -8.166556 -5.420164 68.489676 -8.084604 4.134102 3.613004 11.605347 -0.062332 0.196786 -0.040315 -4.495543 -46.596386 0.304053 23.387654 68.355380 20.108767 -13.025323 21.672426 2.622212 0.157010 -13.344522 -3.114227
-17.307538 58.044707 70.484103 -177.385536 -29.906724 -0.653663 2.668309 18.240183 2.885015 0.256956 2.097887 0.240510 0.429968 3.469333 0.403191 2.256966 15.932388 2.119619 -2.874944 15.354770 1.615206 -5.860998 -7.133256 4.020322 3.754857 -3.846077 -0.970934 16.096477 -20.057829 -15.932134 67.314387 -75.368452 -25.916475 14.417137 -20.324672 -45.163353 -7.740465 -4.698424 -3.753108 -3.579427 -13.036150 1.867916 35.328279 -10.684300 -72.024857 13.774569 -11.917506 31.976731 12.674947 -40.490359 -8.203082 -5.459051 68.492909 -8.111343 4.142572 3.603800 11.585525 -0.066367 0.210471 -0.033935 -4.541958 -46.654500 0.271132 23.228397 68.344845 19.971411 -12.983223 21.870672 2.576105 0.180922 -13.500205 -3.100790
-17.308474 58.038050 70.492529 -177.364413 -29.906376 -0.657462 2.674215 18.249324 2.891723 0.247953 2.094963 0.235564 0.432327 3.471143 0.403427 2.265154 15.937046 2.126034 -2.862592 15.342549 1.604811 -5.817022 -7.166332 3.998622 3.747249 -3.859157 -0.959928 16.182958 -20.037818 -15.869866 67.259544 -75.289121 -26.000691 14.431595 -20.323682 -45.144326 -7.765855 -4.700163 -3.755044 -3.588476 -13.042517 1.885222 35.368425 -10.737097 -72.046222 13.777685 -11.881895 32.001501 12.640558 -40.496393 -8.207172 -5.439695 68.494317 -8.097462 4.144040 3.599981 11.579911 -0.065526 0.219156 -0.035582 -4.562997 -46.679346 0.254654 23.191061 68.337451 19.943888 -12.972294 21.999205 2.550822 0.195221 -13.625418 -3.093775
-17.306727 58.032395 70.500027 -177.355701 -29.917624 -0.665507 2.683147 18.267371 2.908135 0.251086 2.093804 0.235560 0.433802 3.473180 0.403644 2.265331 15.945874 2.125739 -2.807467 15.325117 1.591096 -5.824901 -7.199487 3.999595 3.752543 -3.858867 -0.948564 16.201369 -20.031986 -15.855660 67.240823 -75.270165 -26.049746 14.424119 -20.321095 -45.186054 -7.783715 -4.695218 -3.754932 -3.594065 -13.053849 1.896204 35.403251 -10.777427 -72.065779 13.753841 -11.860582 32.023003 12.610865 -40.492855 -8.193735 -5.419244 68.494434 -8.082161 4.141397 3.600876 11.576524 -0.074554 0.224773 -0.036032 -4.580864 -46.695615 0.250056 23.209582 68.342111 19.969102 -12.958039 22.096518 2.545586 0.200550 -13.732224 -3.097159
-17.303648 58.025980 70.509670 -177.336768 -29.919979 -0.680917 2.675982 18.276638 2.919914 0.254636 2.095374 0.238643 0.435727 3.476854 0.403881 2.263145 15.947210 2.122867 -2.793944 15.310769 1.586908 -5.783707 -7.238809 3.980945 3.744408 -3.869475 -0.947716 16.218837 -20.011528 -15.822108 67.208451 -75.273992 -26.077395 14.366837 -20.336734 -45.214003 -7.791510 -4.675807 -3.751031 -3.599078 -13.082447 1.898346 35.439321 -10.799812 -72.075599 13.729104 -11.826914 32.037176 12.573037 -40.497760 -8.178802 -5.403547 68.493065 -8.073126 4.144630 3.599522 11.576943 -0.077496 0.231970 -0.039100 -4.610031 -46.722101 0.247165 23.236345 68.348024 20.005143 -12.939329 22.171634 2.543968 0.200848 -13.839471 -3.103724
-17.303756 58.021251 70.517266 -177.340257 -29.944628 -0.662673 2.679028 18.309641 2.907255 0.256881 2.096443 0.239541 0.440350 3.490277 0.406358 2.253692 15.929397 2.118071 -2.789217 15.305898 1.585635 -5.759399 -7.259726 3.970320 3.742210 -3.849321 -0.939889 16.219643 -20.007403 -15.798319 67.167151 -75.300983 -26.087518 14.364722 -20.333211 -45.182525 -7.796002 -4.637316 -3.746968 -3.548130 -13.063403 1.907393 35.443198 -10.851231 -72.135589 13.722330 -11.777891 32.041817 12.567889 -40.475209 -8.182717 -5.390135 68.490250 -8.070098 4.137769 3.595669 11.578225 -0.072397 0.243356 -0.041476 -4.589338 -46.720283 0.213074 23.210825 68.328675 19.987321 -12.940509 22.350004 2.514682 0.213175 -13.996734 -3.089568
-17.310250 58.012385 70.532822 -177.296744 -29.923571 -0.624849 2.621392 18.298424 2.846529 0.262855 2.100633 0.238024 0.436453 3.495466 0.410037 2.258373 15.934457 2.117690 -2.771042 15.283032 1.579574 -5.707678 -7.319161 3.945640 3.724923 -3.818763 -0.933659 16.230197 -20.041014 -15.803664 67.076469 -75.336517 -26.034720 14.373366 -20.331766 -45.148631 -7.806170 -4.635480 -3.745429 -3.482130 -13.019038 1.909013 35.440897 -10.913368 -72.192739 13.715122 -11.724010 32.034434 12.582190 -40.487795 -8.264542 -5.380956 68.489383 -8.062521 4.111783 3.607127 11.567505 -0.049850 0.243271 -0.031286 -4.568000 -46.762853 0.121231 23.120317 68.281498 19.908146 -12.974257 22.527495 2.459934 0.259699 -14.121064 -3.072104
-17.298661 58.006686 70.542841 -177.287620 -29.944173 -0.678233 2.626074 18.322442 2.901102 0.262996 2.109242 0.241617 0.438711 3.487247 0.405209 2.262736 15.948365 2.124906 -2.735535 15.251852 1.570355 -5.671653 -7.375484 3.920659 3.713480 -3.811700 -0.938401 16.229903 -20.052022 -15.796172 66.961685 -75.374500 -25.958444 14.245992 -20.379362 -45.124692 -7.815159 -4.632921 -3.750815 -3.403109 -12.970678 1.902402 35.440304 -10.994370 -72.244759 13.711057 -11.660038 32.029413 12.528340 -40.482679 -8.185642 -5.382215 68.485544 -8.069644 4.115399 3.594854 11.579324 -0.070528 0.261316 -0.040019 -4.630176 -46.794558 0.174616 23.196498 68.311711 19.994805 -12.915239 22.692021 2.501247 0.219095 -14.292093 -3.100686
